<?xml version="1.0" encoding="utf-8"?>
<!-- Generator: Adobe Illustrator 16.0.0, SVG Export Plug-In . SVG Version: 6.00 Build 0)  -->
<!DOCTYPE svg PUBLIC "-//W3C//DTD SVG 1.1//EN" "http://www.w3.org/Graphics/SVG/1.1/DTD/svg11.dtd">
<svg version="1.1" id="Calque_1" xmlns="http://www.w3.org/2000/svg" xmlns:xlink="http://www.w3.org/1999/xlink" x="0px" y="0px"
	 width="34px" height="34px" viewBox="0 0 34 34" enable-background="new 0 0 34 34" xml:space="preserve">
<g>
	<circle fill="#FFFFFF" cx="17" cy="17" r="16"/>
	<g>
		<g>
			<path fill="#5DA2F4" d="M22.729,26.697c0.234,0.233,0.919-0.074,1.153-0.307l0.385-0.385c0.232-0.234,0.541-0.919,0.307-1.153
				l-5.778-5.484l-1.51,1.593L22.729,26.697z M22.729,26.697"/>
			<path fill="#5DA2F4" d="M13.147,14.008c0.752-1.308,0.354-2.895-0.83-4.077c-1.399-1.398-4.421-2.768-5.819-1.368
				c-1.398,1.398-0.031,4.42,1.368,5.818c1.16,1.162,2.709,1.568,4.004,0.873l2.736,2.886l1.447-1.373L13.147,14.008z
				 M13.147,14.008"/>
			<path fill="#5DA2F4" d="M20.268,13.968L8.796,24.853c-0.233,0.234,0.072,0.919,0.308,1.153l0.385,0.385
				c0.173,0.175,0.603,0.39,0.903,0.39c0.103,0,0.192-0.023,0.248-0.083l10.929-11.514c0.304,0.151,0.624,0.236,0.947,0.267
				c0.97,0.087,1.981-0.338,2.792-1.151c2.756-2.755,3.251-3.36,2.405-4.422l-3.253,3.116c-0.071,0.073-0.174,0.119-0.278,0.119
				c-0.093,0-0.178-0.036-0.239-0.101l-0.088-0.087c-0.063-0.063-0.1-0.148-0.1-0.239c0.002-0.104,0.045-0.207,0.121-0.282
				l2.952-3.463c-0.068-0.07-0.137-0.137-0.211-0.211c-0.127-0.127-0.244-0.244-0.356-0.358l-3.476,2.966
				c-0.064,0.065-0.166,0.109-0.268,0.109c-0.094,0-0.179-0.035-0.242-0.099l-0.087-0.087c-0.064-0.063-0.098-0.149-0.098-0.242
				c0-0.103,0.044-0.204,0.121-0.279l3.1-3.237c-1-0.728-1.607-0.121-4.266,2.536c-0.883,0.885-1.308,2.001-1.112,3.046
				C19.991,13.389,20.102,13.683,20.268,13.968L20.268,13.968z M20.268,13.968"/>
		</g>
	</g>
</g>
</svg>
