<?xml version="1.0" encoding="utf-8"?>
<!-- Generator: Adobe Illustrator 16.0.0, SVG Export Plug-In . SVG Version: 6.00 Build 0)  -->
<!DOCTYPE svg PUBLIC "-//W3C//DTD SVG 1.1//EN" "http://www.w3.org/Graphics/SVG/1.1/DTD/svg11.dtd">
<svg version="1.1" id="Calque_1" xmlns="http://www.w3.org/2000/svg" xmlns:xlink="http://www.w3.org/1999/xlink" x="0px" y="0px"
	 width="34px" height="34px" viewBox="0 0 34 34" enable-background="new 0 0 34 34" xml:space="preserve">
<g>
	<path fill="#FFFFFF" d="M17,1C8.11,1,1,8.109,1,17c0,8.89,7.109,16,16,16c1.423,0,2.664-1.241,2.664-2.665
		c0-0.712-0.172-1.241-0.711-1.78c-0.348-0.529-0.703-1.06-0.703-1.771c0-1.424,1.242-2.674,2.666-2.674h3.193
		c4.982,0,8.891-3.906,8.891-8.891C33,7.399,25.891,1,17,1L17,1z M7.225,17c-1.424,0-2.665-1.24-2.665-2.665
		c0-1.426,1.241-2.664,2.665-2.664s2.666,1.238,2.666,2.664C9.89,15.76,8.648,17,7.225,17L7.225,17z M12.556,9.89
		c-1.424,0-2.666-1.242-2.666-2.664c0-1.425,1.241-2.665,2.666-2.665c1.423,0,2.665,1.24,2.665,2.665
		C15.221,8.647,13.979,9.89,12.556,9.89L12.556,9.89z M21.445,9.89c-1.424,0-2.664-1.242-2.664-2.664
		c0-1.425,1.24-2.665,2.664-2.665s2.664,1.24,2.664,2.665C24.109,8.647,22.869,9.89,21.445,9.89L21.445,9.89z M26.783,17
		c-1.424,0-2.674-1.24-2.674-2.665c0-1.426,1.25-2.664,2.674-2.664c1.416,0,2.666,1.238,2.666,2.664
		C29.449,15.76,28.199,17,26.783,17L26.783,17z M26.783,17"/>
</g>
</svg>
