<?xml version="1.0" encoding="utf-8"?>
<!-- Generator: Adobe Illustrator 16.0.0, SVG Export Plug-In . SVG Version: 6.00 Build 0)  -->
<!DOCTYPE svg PUBLIC "-//W3C//DTD SVG 1.1//EN" "http://www.w3.org/Graphics/SVG/1.1/DTD/svg11.dtd">
<svg version="1.1" id="Calque_1" xmlns="http://www.w3.org/2000/svg" xmlns:xlink="http://www.w3.org/1999/xlink" x="0px" y="0px"
	 width="34px" height="34px" viewBox="0 0 34 34" enable-background="new 0 0 34 34" xml:space="preserve">
<g>
	<g>
		<path fill="#FFFFFF" d="M19.977,1.401c0.094,0.102,0.186,0.209,0.271,0.322c0.355,0.459,0.65,1.006,0.836,1.605
			c0.188,0.602,0.291,1.24,0.268,1.916c-0.02,0.706-0.242,1.426-0.615,2.033c-0.373,0.613-0.902,1.128-1.516,1.474
			c-0.605,0.356-1.296,0.539-1.956,0.553l-0.246,0.001l-0.094-0.001L16.875,9.3l-0.104-0.01l-0.205-0.021L16.32,9.221
			c-0.339-0.065-0.608-0.168-0.884-0.292c-0.542-0.242-0.98-0.598-1.309-0.977c-0.335-0.375-0.551-0.782-0.691-1.15
			c-0.145-0.367-0.19-0.709-0.215-0.981c-0.018-0.273-0.002-0.487,0.019-0.63c0.021-0.141,0.032-0.217,0.032-0.217
			s0.019,0.073,0.054,0.212c0.024,0.138,0.096,0.334,0.184,0.571c0.098,0.234,0.234,0.507,0.431,0.784
			c0.199,0.274,0.458,0.552,0.773,0.796c0.319,0.24,0.702,0.435,1.121,0.561c0.202,0.06,0.444,0.107,0.641,0.113l0.154,0.01h0.206
			h0.104h0.052c-0.063-0.002-0.015-0.002-0.027-0.002h0.005l0.012-0.002l0.021-0.002l0.173-0.021
			c0.459-0.054,0.91-0.218,1.308-0.475c0.398-0.255,0.75-0.599,0.99-1.013c0.258-0.409,0.404-0.864,0.447-1.334
			c0.041-0.499-0.002-1.023-0.102-1.505c-0.197-0.97-0.666-1.792-1.275-2.319c-0.066-0.061-0.135-0.116-0.205-0.17
			C17.897,1.142,17.452,1.118,17,1.118C8.228,1.118,1.119,8.229,1.119,17c0,8.771,7.109,15.882,15.881,15.882
			c8.77,0,15.881-7.111,15.881-15.882C32.881,9.245,27.322,2.794,19.977,1.401z"/>
	</g>
	<path fill="#3D8AF9" d="M19.818,3.668c0.1,0.481,0.143,1.006,0.102,1.505c-0.043,0.47-0.189,0.925-0.447,1.334
		c-0.24,0.414-0.592,0.758-0.99,1.013c-0.398,0.257-0.849,0.421-1.308,0.475l-0.173,0.021l-0.021,0.002l-0.012,0.002h-0.005
		c0.013,0-0.036,0,0.027,0.002H16.94h-0.104h-0.206l-0.154-0.01c-0.196-0.006-0.438-0.054-0.641-0.113
		c-0.419-0.126-0.802-0.32-1.121-0.561c-0.315-0.244-0.574-0.521-0.773-0.796c-0.196-0.277-0.333-0.55-0.431-0.784
		c-0.088-0.237-0.159-0.434-0.184-0.571c-0.035-0.139-0.054-0.212-0.054-0.212S13.26,5.05,13.24,5.19
		c-0.021,0.143-0.036,0.356-0.019,0.63c0.024,0.272,0.07,0.614,0.215,0.981c0.141,0.368,0.356,0.775,0.691,1.15
		c0.328,0.379,0.767,0.734,1.309,0.977c0.275,0.124,0.545,0.227,0.884,0.292l0.246,0.048l0.205,0.021l0.104,0.01l0.051,0.005
		l0.094,0.001l0.246-0.001c0.659-0.014,1.35-0.196,1.956-0.553c0.613-0.346,1.143-0.86,1.516-1.474
		c0.373-0.607,0.596-1.327,0.615-2.033c0.023-0.676-0.08-1.314-0.268-1.916c-0.186-0.6-0.48-1.146-0.836-1.605
		c-0.086-0.113-0.178-0.221-0.271-0.322c-0.537-0.103-1.084-0.176-1.639-0.223c0.07,0.054,0.139,0.109,0.205,0.17
		C19.152,1.876,19.621,2.698,19.818,3.668z"/>
	<g>
		<g>
			<path fill="#3D8AF9" d="M19.813,24.742c0,0,0.063,0.124,0.144,0.335c0.026,0.105,0.016,0.283-0.032,0.49
				c-0.053,0.18-0.131,0.373-0.258,0.562c-0.129,0.162-0.28,0.385-0.475,0.518c-0.19,0.16-0.407,0.302-0.644,0.403
				c-0.471,0.232-1.011,0.326-1.548,0.347c-0.355-0.028-0.447-0.021-0.752-0.085c-0.285-0.063-0.572-0.137-0.798-0.259
				c-0.236-0.102-0.453-0.243-0.644-0.403c-0.194-0.134-0.347-0.355-0.475-0.519c-0.26-0.373-0.321-0.78-0.283-1.027
				c0.068-0.263,0.138-0.361,0.138-0.361s0.108,0.121,0.242,0.242c0.073,0.061,0.198,0.106,0.281,0.158
				c0.115,0.041,0.244,0.072,0.361,0.108c0.152,0.018,0.265,0.055,0.431,0.063c0.147,0.022,0.302,0.037,0.471,0.043
				c0.166,0.028,0.312,0.001,0.456,0.023c0.188,0.006,0.38,0.011,0.572,0.017c0.176-0.003,0.352-0.007,0.525-0.01
				c0.168-0.02,0.348-0.003,0.504-0.027c0.169-0.007,0.324-0.021,0.472-0.044c0.165-0.008,0.279-0.044,0.431-0.063
				c0.131-0.038,0.251-0.073,0.357-0.104c0.071-0.036,0.198-0.058,0.277-0.138C19.711,24.838,19.813,24.742,19.813,24.742z"/>
		</g>
	</g>
	<g>
		<ellipse fill="#3D8AF9" cx="23.44" cy="13.823" rx="1.688" ry="3.176"/>
		<ellipse fill="#3D8AF9" cx="10.56" cy="13.823" rx="1.688" ry="3.176"/>
	</g>
</g>
</svg>
