<?xml version="1.0" encoding="utf-8"?>
<!-- Generator: Adobe Illustrator 16.0.0, SVG Export Plug-In . SVG Version: 6.00 Build 0)  -->
<!DOCTYPE svg PUBLIC "-//W3C//DTD SVG 1.1//EN" "http://www.w3.org/Graphics/SVG/1.1/DTD/svg11.dtd">
<svg version="1.1" id="Calque_1" xmlns="http://www.w3.org/2000/svg" xmlns:xlink="http://www.w3.org/1999/xlink" x="0px" y="0px"
	 width="34px" height="34px" viewBox="0 0 34 34" enable-background="new 0 0 34 34" xml:space="preserve">
<g>
	<circle fill="#FFFFFF" cx="17" cy="17" r="16.234"/>
	<g>
		<path fill="#5DA2F4" d="M16.068,10.286c1.206,0,2.184-0.979,2.184-2.186c0-1.206-0.978-2.184-2.184-2.184
			c-1.207,0-2.186,0.978-2.186,2.184C13.882,9.307,14.861,10.286,16.068,10.286L16.068,10.286z M16.068,10.286"/>
		<path fill="#5DA2F4" d="M19.443,22.662c-0.58,2.018-2.438,3.496-4.637,3.496c-2.664,0-4.83-2.168-4.83-4.83
			c0-1.971,1.189-3.667,2.887-4.418v-2.047c-2.78,0.838-4.811,3.418-4.811,6.465c0,3.725,3.029,6.754,6.754,6.754
			c2.713,0,5.051-1.613,6.125-3.926l-0.764-1.5C19.955,22.658,19.707,22.658,19.443,22.662L19.443,22.662z M19.443,22.662"/>
		<path fill="#5DA2F4" d="M25.807,25.256l-2.926-5.752c-0.217-0.432-0.66-0.701-1.141-0.701h-3.748v-0.856h3.224
			c0.322,0,0.592-0.169,0.768-0.41c0.113-0.158,0.195-0.341,0.195-0.551c0-0.532-0.432-0.963-0.963-0.963h-3.224v-2.896
			c0-0.798-0.593-1.926-1.925-1.926c-1.063,0-1.924,0.861-1.924,1.926v6.278c0,1.084,0.878,1.963,1.963,1.963h4.846l2.568,5.051
			c0.227,0.445,0.676,0.703,1.145,0.703c0.195,0,0.395-0.045,0.58-0.141C25.879,26.658,26.131,25.887,25.807,25.256L25.807,25.256z
			 M25.807,25.256"/>
	</g>
</g>
</svg>
