<?xml version="1.0" encoding="utf-8"?>
<!-- Generator: Adobe Illustrator 16.0.0, SVG Export Plug-In . SVG Version: 6.00 Build 0)  -->
<!DOCTYPE svg PUBLIC "-//W3C//DTD SVG 1.1//EN" "http://www.w3.org/Graphics/SVG/1.1/DTD/svg11.dtd">
<svg version="1.1" id="Calque_1" xmlns="http://www.w3.org/2000/svg" xmlns:xlink="http://www.w3.org/1999/xlink" x="0px" y="0px"
	 width="34px" height="34px" viewBox="0 0 34 34" enable-background="new 0 0 34 34" xml:space="preserve">
<g>
	<g>
		<path fill="#FFFFFF" d="M10.068,15.221c1.648-0.788,2.794-2.466,2.794-4.415c0-2.702-2.186-4.89-4.886-4.89
			c-2.702,0-4.89,2.188-4.89,4.89c0,1.923,1.114,3.584,2.729,4.38C3.664,15.45,2,17.278,2,19.5v3.396v1.04v5.072h11.682v-5.072
			v-1.04V19.5C13.682,17.35,12.119,15.57,10.068,15.221z"/>
	</g>
	<g>
		<path fill="#FFFFFF" d="M22.286,15.474c1.443-0.688,2.439-2.154,2.439-3.857c0-2.359-1.911-4.27-4.27-4.27
			c-2.363,0-4.277,1.911-4.277,4.27c0,1.68,0.978,3.132,2.388,3.831c-1.882,0.229-3.334,1.825-3.334,3.767v2.964v0.913v4.432h10.206
			v-4.432v-0.913v-2.964C25.438,17.337,24.076,15.78,22.286,15.474z"/>
	</g>
	<g>
		<path fill="#FFFFFF" d="M8.154,32.225v-10.01c0-2.03,1.262-3.8,3.08-4.511c-1.25-1.008-1.991-2.526-1.991-4.181
			c0-2.972,2.417-5.39,5.388-5.39c2.973,0,5.392,2.418,5.392,5.39c0,1.673-0.794,3.244-2.09,4.253
			c1.733,0.754,2.902,2.473,2.902,4.438v10.01H8.154z"/>
		<g>
			<path fill="#3D8AF9" d="M14.631,8.633c2.701,0,4.892,2.191,4.892,4.89c0,1.95-1.146,3.627-2.794,4.413
				c2.044,0.352,3.606,2.13,3.606,4.279v3.397v1.04v5.072H8.654v-5.072v-1.04v-3.397c0-2.222,1.666-4.049,3.817-4.311
				c-1.616-0.797-2.729-2.456-2.729-4.381C9.743,10.824,11.929,8.633,14.631,8.633 M14.631,7.633c-3.247,0-5.888,2.642-5.888,5.89
				c0,1.543,0.589,2.978,1.61,4.049c-1.623,0.926-2.699,2.673-2.699,4.643v3.397v1.04v5.072v1h1h11.681h1v-1v-5.072v-1.04v-3.397
				c0-1.904-0.994-3.598-2.53-4.546c1.078-1.087,1.718-2.576,1.718-4.146C20.522,10.275,17.88,7.633,14.631,7.633L14.631,7.633z"/>
		</g>
	</g>
	<g>
		<path fill="#FFFFFF" d="M24.407,5.519h3.241V2.276h1.109v3.243H32v1.109h-3.242V9.87h-1.109V6.627h-3.241V5.519z"/>
	</g>
</g>
</svg>
