<?xml version="1.0" encoding="utf-8"?>
<!-- Generator: Adobe Illustrator 16.0.0, SVG Export Plug-In . SVG Version: 6.00 Build 0)  -->
<!DOCTYPE svg PUBLIC "-//W3C//DTD SVG 1.1//EN" "http://www.w3.org/Graphics/SVG/1.1/DTD/svg11.dtd">
<svg version="1.1" id="Calque_1" xmlns="http://www.w3.org/2000/svg" xmlns:xlink="http://www.w3.org/1999/xlink" x="0px" y="0px"
	 width="34px" height="34px" viewBox="0 0 34 34" enable-background="new 0 0 34 34" xml:space="preserve">
<g>
	<path fill="#FFFFFF" d="M22.533,5.434c-0.034-1.123-0.478-2.24-1.334-3.097c-0.86-0.86-1.975-1.303-3.101-1.338
		c0.126,0.982,0.649,2.04,1.525,2.913C20.496,4.788,21.552,5.308,22.533,5.434L22.533,5.434z M22.533,5.434"/>
	<path fill="#FFFFFF" d="M9.874,6.05h1.94l-0.727-0.952H9.146L9.874,6.05z M9.874,6.05"/>
	<path fill="#FFFFFF" d="M18.922,11.137l-0.73-0.953h-2.033l0.728,0.953H18.922z M18.922,11.137"/>
	<path fill="#FFFFFF" d="M9.589,11.137l-0.726-0.953H6.912l0.728,0.953H9.589z M9.589,11.137"/>
	<path fill="#FFFFFF" d="M13.743,11.137h1.946l-0.728-0.953h-1.943L13.743,11.137z M13.743,11.137"/>
	<path fill="#FFFFFF" d="M12.547,11.137l-0.725-0.953h-1.765l0.723,0.953H12.547z M12.547,11.137"/>
	<path fill="#FFFFFF" d="M11.836,8.628h1.943l-0.73-0.953h-1.94L11.836,8.628z M11.836,8.628"/>
	<path fill="#FFFFFF" d="M10.641,8.628L9.914,7.675H8.151l0.724,0.953H10.641z M10.641,8.628"/>
	<path fill="#FFFFFF" d="M17.452,16.015h1.949l-0.728-0.958h-1.949L17.452,16.015z M17.452,16.015"/>
	<path fill="#FFFFFF" d="M13.764,15.057l0.727,0.958h1.763l-0.727-0.958H13.764z M13.764,15.057"/>
	<path fill="#FFFFFF" d="M9.432,15.057H7.397l0.738,0.958h2.026L9.432,15.057z M9.432,15.057"/>
	<path fill="#FFFFFF" d="M10.625,15.057l0.73,0.958h1.941l-0.728-0.958H10.625z M10.625,15.057"/>
	<path fill="#FFFFFF" d="M11.387,13.504l-0.724-0.954H8.716l0.728,0.954H11.387z M11.387,13.504"/>
	<path fill="#FFFFFF" d="M15.542,13.504h1.947l-0.727-0.954h-1.946L15.542,13.504z M15.542,13.504"/>
	<path fill="#FFFFFF" d="M14.345,13.504l-0.723-0.954h-1.768l0.727,0.954H14.345z M14.345,13.504"/>
	<path fill="#FFFFFF" d="M7.517,12.55h-2.04l0.732,0.954h2.038L7.517,12.55z M7.517,12.55"/>
	<path fill="#FFFFFF" d="M9.378,17.638l0.731,0.957h2.018l-0.727-0.957H9.378z M9.378,17.638"/>
	<path fill="#FFFFFF" d="M14.531,17.638h-1.938l0.727,0.957h1.937L14.531,17.638z M14.531,17.638"/>
	<path fill="#FFFFFF" d="M10.057,10.184L8.875,8.628H7.68l1.183,1.556H10.057z M10.057,10.184"/>
	<path fill="#FFFFFF" d="M13.764,15.057l-1.183-1.553h-1.194l1.183,1.553H13.764z M13.764,15.057"/>
	<path fill="#FFFFFF" d="M11.854,12.55l-1.074-1.413H9.589l1.074,1.413H11.854z M11.854,12.55"/>
	<path fill="#FFFFFF" d="M13.297,16.015l1.234,1.623h1.19l-1.231-1.623H13.297z M13.297,16.015"/>
	<path fill="#FFFFFF" d="M9.444,13.504H8.247l1.185,1.553h1.194L9.444,13.504z M9.444,13.504"/>
	<path fill="#FFFFFF" d="M10.162,16.015l1.238,1.623h1.194l-1.238-1.623H10.162z M10.162,16.015"/>
	<path fill="#FFFFFF" d="M8.716,12.55L7.64,11.137H6.442l1.075,1.413H8.716z M8.716,12.55"/>
	<path fill="#FFFFFF" d="M18.674,15.057h1.201l-1.186-1.553h-1.2L18.674,15.057z M18.674,15.057"/>
	<path fill="#FFFFFF" d="M15.688,11.137l1.074,1.413h1.2l-1.077-1.413H15.688z M15.688,11.137"/>
	<path fill="#FFFFFF" d="M13.018,10.184l-1.182-1.556h-1.195l1.181,1.556H13.018z M13.018,10.184"/>
	<path fill="#FFFFFF" d="M15.527,15.057h1.198l-1.182-1.553h-1.197L15.527,15.057z M15.527,15.057"/>
	<path fill="#FFFFFF" d="M16.254,16.015l1.235,1.623h1.194l-1.231-1.623H16.254z M16.254,16.015"/>
	<path fill="#FFFFFF" d="M13.622,12.55h1.194l-1.074-1.413h-1.196L13.622,12.55z M13.622,12.55"/>
	<g>
		<path fill="#FFFFFF" d="M11.108,7.675L9.874,6.05H8.679l1.235,1.625H11.108z M11.108,7.675"/>
		<path fill="#FFFFFF" d="M30.083,29.897l-5.598-6.313l0.016-0.013l-0.065-0.043l-1.314-1.485c-0.131-0.146-0.279-0.255-0.437-0.353
			c-0.743-1.151-1.501-2.968-1.547-5.594c0.223-0.792,0.328-1.639,0.306-2.534c-0.038-1.402-0.39-2.816-1.002-4.155
			c-0.047,0.031-0.093,0.048-0.14,0.077c0.315-0.189,0.621-0.405,0.894-0.677C21.981,8.024,22.421,7.025,22.514,6
			c-1.119-0.13-2.313-0.702-3.295-1.687c-0.98-0.979-1.554-2.175-1.688-3.294c-1.02,0.092-2.02,0.535-2.805,1.318
			c-0.279,0.276-0.493,0.584-0.684,0.906c-1.126-0.445-2.293-0.694-3.448-0.694c-1.76,0-3.36,0.56-4.621,1.616
			c-3.448,2.89-3.355,8.705,0.212,12.963c1.987,2.373,4.725,3.842,7.437,4.055l-0.004,0.045c0.041,0.003,3.481,0.19,6.55,3.066
			c0.051,0.073,0.1,0.15,0.165,0.222l6.959,7.856c0.684,0.772,1.858,0.839,2.633,0.155C30.695,31.847,30.767,30.67,30.083,29.897
			L30.083,29.897z M19.655,9.809c-0.121,0.05-0.241,0.094-0.362,0.131C19.414,9.903,19.537,9.856,19.655,9.809L19.655,9.809z
			 M14.246,19.811l-0.925-1.216h-1.194l0.827,1.084c-1.489-0.273-2.961-0.979-4.249-2.041h0.673l-1.243-1.623H7.111
			c-0.249-0.311-0.475-0.628-0.684-0.958h0.97l-1.188-1.553H5.607c-0.331-0.783-0.558-1.581-0.669-2.367h1.504l-0.728-0.953H4.858
			C4.849,9.826,4.87,9.477,4.908,9.128l0.807,1.056h1.198L5.73,8.628H4.982C5.028,8.377,5.09,8.129,5.167,7.889L5.73,8.628h1.95
			L6.953,7.675H5.236C5.41,7.186,5.632,6.732,5.919,6.313l1.034,1.362h1.198L6.916,6.05H6.12c0.134-0.167,0.273-0.332,0.428-0.482
			L6.916,6.05h1.764L7.954,5.098H7.083c0.885-0.671,1.962-1.056,3.154-1.117l0.851,1.117h1.191l-0.816-1.074
			c0.686,0.08,1.376,0.262,2.051,0.529c-0.047,0.195-0.087,0.393-0.106,0.591c1.12,0.133,2.315,0.705,3.299,1.687
			c0.978,0.98,1.556,2.175,1.683,3.298c0.221-0.021,0.44-0.065,0.657-0.118c-0.217,0.053-0.437,0.096-0.657,0.118l-0.708-0.609
			c-0.229-0.792-0.689-1.594-1.379-2.284C15.425,6.36,14.37,5.84,13.389,5.713c0.012,0.362,0.081,0.728,0.179,1.084
			c0-0.007,0-0.01,0-0.01l-0.563-0.733h-1.19l1.234,1.621h0.867c0-0.003,0-0.003-0.002-0.01c0.002,0.006,0.002,0.006,0.006,0.01
			h-0.003c0.003,0.003,0.006,0.006,0.006,0.009c0.173,0.331,0.386,0.643,0.646,0.935c0.003,0.001,0.006,0.009,0.009,0.012
			c0.053,0.059,0.093,0.124,0.149,0.18c0.166,0.167,0.35,0.303,0.531,0.437c-0.182-0.131-0.366-0.27-0.531-0.437
			c-0.056-0.056-0.096-0.121-0.149-0.18h-0.798l1.182,1.556h1.197L15.63,9.494c0,0-0.007-0.003-0.007-0.006
			c0.679,0.406,1.434,0.638,2.199,0.66c-0.027-0.207-0.08-0.418-0.142-0.625l0.511,0.665h1.049c0.335,0.771,0.57,1.566,0.69,2.363
			h-1.968l0.727,0.957h1.334c0,0.032,0.003,0.063,0.003,0.093c0.016,0.507-0.021,0.994-0.1,1.46h-0.052l0.039,0.056
			c-0.169,0.953-0.538,1.807-1.073,2.521h-0.157l0.074,0.1c-0.198,0.251-0.417,0.489-0.663,0.702l-0.605-0.802h-1.768l0.728,0.957
			h1.467c-0.99,0.795-2.243,1.219-3.629,1.219C14.274,19.813,14.257,19.811,14.246,19.811L14.246,19.811z M13.727,3.881
			c0,0,0,0.003-0.003,0.006C13.727,3.884,13.727,3.881,13.727,3.881L13.727,3.881z M20.491,21.883
			c-0.368,0.328-0.573,0.769-0.616,1.225c-1.358-1.086-2.72-1.719-3.825-2.084c1.065-0.248,2.036-0.72,2.859-1.411
			c0.672-0.561,1.214-1.241,1.624-2.005c0.198,1.606,0.653,2.864,1.164,3.819C21.267,21.432,20.837,21.58,20.491,21.883
			L20.491,21.883z M20.491,21.883"/>
	</g>
</g>
</svg>
