<?xml version="1.0" encoding="utf-8"?>
<!-- Generator: Adobe Illustrator 16.0.0, SVG Export Plug-In . SVG Version: 6.00 Build 0)  -->
<!DOCTYPE svg PUBLIC "-//W3C//DTD SVG 1.1//EN" "http://www.w3.org/Graphics/SVG/1.1/DTD/svg11.dtd">
<svg version="1.1" id="Calque_1" xmlns="http://www.w3.org/2000/svg" xmlns:xlink="http://www.w3.org/1999/xlink" x="0px" y="0px"
	 width="34px" height="34px" viewBox="0 0 34 34" enable-background="new 0 0 34 34" xml:space="preserve">
<g>
	<g>
		<path fill="#FFFFFF" d="M13.022,13.077c1.797-0.858,3.045-2.688,3.045-4.811c0-2.944-2.382-5.329-5.325-5.329
			c-2.944,0-5.328,2.385-5.328,5.329c0,2.096,1.214,3.906,2.973,4.772c-2.344,0.287-4.158,2.28-4.158,4.702v3.7v1.132v5.529h12.73
			v-5.529v-1.132v-3.7C16.958,15.397,15.255,13.458,13.022,13.077z"/>
	</g>
	<g>
		<path fill="#FFFFFF" d="M26.334,13.353c1.574-0.749,2.66-2.347,2.66-4.203c0-2.57-2.082-4.653-4.652-4.653
			c-2.574,0-4.662,2.083-4.662,4.653c0,1.832,1.066,3.415,2.602,4.175c-2.049,0.249-3.633,1.989-3.633,4.106v3.229v0.995v4.828
			h11.123v-4.828V20.66v-3.229C29.771,15.384,28.287,13.687,26.334,13.353z"/>
	</g>
	<g>
		<path fill="#FFFFFF" d="M10.979,31.563V20.699c0-2.221,1.398-4.153,3.402-4.902c-1.389-1.09-2.215-2.754-2.215-4.572
			c0-3.214,2.614-5.828,5.826-5.828c3.215,0,5.832,2.614,5.832,5.828c0,1.835-0.883,3.558-2.321,4.647
			c1.911,0.798,3.206,2.676,3.206,4.826v10.863H10.979z"/>
		<g>
			<path fill="#5DA2F4" d="M17.993,5.897c2.945,0,5.332,2.388,5.332,5.328c0,2.126-1.248,3.954-3.045,4.81
				c2.227,0.383,3.93,2.321,3.93,4.664v3.702v1.135v5.526h-12.73v-5.526v-1.135v-3.702c0-2.421,1.816-4.412,4.161-4.697
				c-1.761-0.869-2.974-2.678-2.974-4.776C12.667,8.285,15.049,5.897,17.993,5.897 M17.993,4.897c-3.488,0-6.326,2.839-6.326,6.328
				c0,1.699,0.665,3.274,1.812,4.436c-1.798,0.978-2.999,2.884-2.999,5.038v3.702v1.135v5.526v1h1h12.73h1v-1v-5.526v-1.135v-3.702
				c0-2.083-1.108-3.932-2.813-4.937c1.208-1.175,1.928-2.81,1.928-4.537C24.324,7.736,21.484,4.897,17.993,4.897L17.993,4.897z"/>
		</g>
	</g>
</g>
</svg>
