<?xml version="1.0" encoding="utf-8"?>
<!-- Generator: Adobe Illustrator 16.0.0, SVG Export Plug-In . SVG Version: 6.00 Build 0)  -->
<!DOCTYPE svg PUBLIC "-//W3C//DTD SVG 1.1//EN" "http://www.w3.org/Graphics/SVG/1.1/DTD/svg11.dtd">
<svg version="1.1" id="Calque_1" xmlns="http://www.w3.org/2000/svg" xmlns:xlink="http://www.w3.org/1999/xlink" x="0px" y="0px"
	 width="260px" height="316px" viewBox="0 0 260 316" enable-background="new 0 0 260 316" xml:space="preserve">
<g>
	<circle fill="#FFFFFF" cx="130" cy="186.28" r="129.025"/>
	<g>
		<path fill="#D40026" d="M95.205,47.466c0,0,36.281-44.297,76.641-44.297c14.348,0,21.546,4.387,21.536,15.415
			c13.209-6.128,38.089,3.991,28.808,22.694c0,0,20.25,2.953,20.25,17.156c0,9.708-10.958,16.318-10.958,16.318
			s10.114,3.792,10.114,15.042c0,14.63-16.969,29.628-43.828,37.082"/>
		<path d="M95.205,47.466c1.518-2.029,3.153-3.969,4.81-5.89c1.657-1.922,3.391-3.777,5.146-5.614
			c1.765-1.826,3.553-3.637,5.414-5.373c1.854-1.742,3.748-3.446,5.683-5.106c3.865-3.327,7.925-6.442,12.171-9.311
			c4.249-2.861,8.664-5.525,13.32-7.762c4.648-2.245,9.503-4.137,14.545-5.501c2.521-0.676,5.084-1.24,7.687-1.606
			c2.612-0.371,5.211-0.581,7.901-0.607c1.229-0.009,2.619,0.011,3.928,0.08c1.326,0.076,2.66,0.196,4.003,0.39
			c2.677,0.391,5.429,1.059,8.065,2.427c1.312,0.688,2.58,1.569,3.696,2.656c1.126,1.077,2.047,2.388,2.736,3.771
			c1.394,2.793,1.798,5.781,1.816,8.567l-3.9-2.493c2.111-0.985,4.326-1.563,6.534-1.856c2.211-0.29,4.423-0.288,6.6-0.065
			c2.178,0.226,4.323,0.678,6.408,1.355c2.084,0.679,4.111,1.583,6.02,2.757c1.901,1.178,3.688,2.635,5.199,4.418
			c1.506,1.777,2.728,3.905,3.389,6.235c0.673,2.325,0.774,4.795,0.413,7.105c-0.356,2.322-1.159,4.472-2.14,6.455l-2.063-3.938
			c0.646,0.104,1.141,0.208,1.696,0.33c0.54,0.12,1.073,0.25,1.604,0.391c1.061,0.28,2.108,0.601,3.148,0.961
			c2.075,0.725,4.116,1.613,6.066,2.757c1.947,1.14,3.818,2.532,5.437,4.28c1.617,1.735,2.942,3.882,3.672,6.238
			c0.361,1.176,0.593,2.39,0.669,3.598c0.019,0.302-0.046,0.604-0.047,0.904l-0.08,0.225v0.112l0.082,0.194l0.024,0.385
			c-0.008,0.439-0.064,1.22-0.157,1.814c-0.374,2.414-1.313,4.643-2.513,6.606c-1.204,1.97-2.676,3.687-4.281,5.211
			c-0.805,0.763-1.64,1.48-2.508,2.157c-0.436,0.337-0.876,0.665-1.328,0.983c-0.467,0.325-0.889,0.609-1.445,0.945l-0.365-3.974
			c0.319,0.129,0.502,0.217,0.732,0.329c0.22,0.107,0.433,0.217,0.641,0.33c0.417,0.228,0.823,0.463,1.217,0.718
			c0.79,0.501,1.539,1.061,2.253,1.667c1.421,1.214,2.694,2.632,3.698,4.241c1.015,1.6,1.757,3.379,2.188,5.212
			c0.452,1.821,0.54,3.737,0.438,5.511c-0.116,1.885-0.482,3.645-1.031,5.373c-0.547,1.719-1.289,3.353-2.154,4.896
			c-0.87,1.542-1.863,2.996-2.951,4.358c-1.086,1.364-2.256,2.649-3.498,3.846c-2.485,2.395-5.213,4.482-8.06,6.347
			c-2.854,1.854-5.823,3.503-8.892,4.918c-3.064,1.425-6.2,2.667-9.385,3.744c-3.191,1.055-6.421,1.975-9.688,2.711
			c3.179-1.054,6.32-2.197,9.386-3.512c3.072-1.293,6.075-2.733,8.976-4.341c2.896-1.613,5.708-3.362,8.354-5.319
			c2.641-1.958,5.128-4.109,7.328-6.493c2.207-2.369,4.148-4.968,5.568-7.787c0.706-1.408,1.288-2.866,1.686-4.357
			c0.401-1.478,0.65-3.034,0.672-4.493c0.009-0.166,0.015-0.406,0.015-0.606v-0.157v-0.039c0-0.037,0,0.027,0,0.015l-0.015-0.018
			l-0.011-0.07l-0.02-0.281c-0.013-0.375-0.047-0.748-0.096-1.116c-0.084-0.739-0.222-1.464-0.417-2.168
			c-0.385-1.411-0.996-2.741-1.815-3.939c-0.811-1.204-1.836-2.271-2.988-3.188c-0.578-0.457-1.187-0.881-1.822-1.253
			c-0.315-0.189-0.641-0.361-0.964-0.524c-0.161-0.081-0.324-0.158-0.483-0.228c-0.146-0.067-0.348-0.148-0.417-0.172
			c-1.142-0.398-1.745-1.646-1.348-2.789c0.166-0.476,0.479-0.858,0.87-1.113l0.111-0.072c0.316-0.207,0.74-0.506,1.107-0.783
			c0.379-0.285,0.754-0.581,1.121-0.886c0.733-0.611,1.438-1.256,2.102-1.931c1.328-1.35,2.502-2.818,3.417-4.372
			c0.907-1.556,1.551-3.204,1.771-4.867c0.046-0.422-0.016-0.665-0.009-1.253l-0.095-0.385v-0.024c0-0.023,0,0.156,0,0.075v-0.01
			l0.103-0.04l0.049-0.08l0.02-0.16c-0.003-0.214-0.01-0.424-0.027-0.635c-0.07-0.843-0.243-1.656-0.502-2.438
			c-0.527-1.562-1.43-2.989-2.64-4.231c-1.204-1.246-2.68-2.314-4.299-3.211c-1.621-0.894-3.369-1.639-5.179-2.25
			c-0.906-0.303-1.827-0.574-2.756-0.808c-0.465-0.117-0.931-0.226-1.396-0.323c-0.449-0.095-0.962-0.191-1.331-0.246
			c-1.503-0.223-2.541-1.622-2.318-3.125c0.041-0.275,0.122-0.536,0.235-0.775l0.019-0.038c0.763-1.588,1.339-3.224,1.564-4.848
			c0.24-1.621,0.159-3.218-0.279-4.72c-0.433-1.503-1.233-2.909-2.3-4.161c-1.067-1.253-2.4-2.347-3.882-3.26
			c-1.479-0.918-3.108-1.657-4.806-2.216c-1.698-0.559-3.468-0.939-5.248-1.129c-1.781-0.191-3.576-0.189-5.314,0.024
			c-1.736,0.21-3.42,0.643-4.927,1.326l-0.034,0.016c-1.376,0.624-2.997,0.014-3.621-1.361c-0.167-0.369-0.245-0.768-0.245-1.147
			c0.015-2.252-0.312-4.412-1.178-6.172c-0.844-1.769-2.228-3.153-4.067-4.17c-1.839-1.013-4.056-1.646-6.365-2.026
			c-1.157-0.192-2.341-0.326-3.538-0.42c-1.216-0.087-2.354-0.131-3.655-0.15c-2.368-0.029-4.826,0.11-7.229,0.399
			c-2.413,0.293-4.822,0.699-7.207,1.256c-4.771,1.105-9.449,2.729-13.984,4.719c-4.53,2.002-8.961,4.297-13.229,6.893
			c-2.137,1.293-4.238,2.652-6.305,4.067c-2.067,1.414-4.117,2.861-6.123,4.372c-2.008,1.509-3.981,3.067-5.923,4.667
			c-1.935,1.608-3.864,3.229-5.745,4.909c-1.886,1.673-3.725,3.401-5.551,5.147C98.715,43.823,96.932,45.615,95.205,47.466z"/>
	</g>
	<g>
		<path fill="#FFFFFF" d="M33.611,259.295c0,0,13.875-24.375,14.625-77.625c0.75-53.25-4.125-130.875,57.75-136.5
			s89.25,23.625,92.25,62.25s4.5,72,24.75,77.249"/>
		<path d="M33.611,259.295c0,0,0.834-1.58,2.036-4.692c1.212-3.106,2.75-7.755,4.302-13.771c1.546-6.019,3.02-13.425,4.188-21.987
			c1.155-8.564,1.94-18.291,2.245-28.915c0.036-2.656,0.074-5.369,0.112-8.133c-0.017-2.775-0.034-5.603-0.051-8.479
			c-0.056-5.756-0.086-11.717-0.085-17.853c0.033-12.269,0.216-25.268,1.658-38.699c0.721-6.712,1.736-13.534,3.292-20.368
			c1.555-6.828,3.661-13.687,6.732-20.27c3.039-6.58,7.128-12.878,12.417-18.188c5.289-5.302,11.832-9.433,18.874-12.012
			c3.526-1.281,7.162-2.192,10.819-2.808l2.749-0.407l2.753-0.299c1.789-0.131,3.576-0.261,5.361-0.392
			c7.263-0.42,14.45-0.389,21.606,0.255c1.783,0.199,3.565,0.386,5.339,0.619c0.884,0.139,1.768,0.278,2.65,0.417
			c0.883,0.138,1.766,0.269,2.638,0.464c1.748,0.37,3.498,0.697,5.216,1.176c0.861,0.225,1.722,0.449,2.58,0.672
			c0.849,0.264,1.696,0.527,2.543,0.79c6.772,2.104,13.183,5.195,18.95,9.061c5.712,3.946,10.769,8.707,14.685,14.134l0.747,1.004
			l0.688,1.041c0.453,0.696,0.926,1.377,1.355,2.081c0.823,1.429,1.685,2.827,2.389,4.294c0.771,1.436,1.401,2.922,2.051,4.389
			c0.33,0.73,0.584,1.489,0.877,2.228c0.279,0.744,0.582,1.478,0.81,2.234c2.006,5.984,3.228,12.013,3.729,17.877
			c0.271,2.958,0.39,5.739,0.571,8.528c0.17,2.773,0.336,5.494,0.5,8.159c0.334,5.327,0.708,10.42,1.126,15.255
			c0.417,4.833,0.907,9.406,1.539,13.673c1.273,8.52,3.064,15.87,5.705,21.438c1.309,2.783,2.836,5.087,4.403,6.887
			c1.573,1.803,3.222,3.039,4.625,3.908c0.358,0.21,0.695,0.407,1.011,0.592c0.322,0.174,0.641,0.301,0.927,0.438
			c0.288,0.133,0.554,0.254,0.796,0.365c0.245,0.105,0.479,0.17,0.681,0.244c0.815,0.281,1.236,0.426,1.236,0.426
			s-0.43-0.119-1.262-0.352c-0.206-0.063-0.445-0.113-0.697-0.205c-0.25-0.097-0.524-0.203-0.822-0.318
			c-0.296-0.121-0.626-0.23-0.961-0.387c-0.331-0.168-0.685-0.347-1.06-0.537c-1.476-0.797-3.237-1.959-4.965-3.715
			c-1.73-1.746-3.431-4.046-4.91-6.841c-2.994-5.587-5.215-13.001-6.83-21.584c-1.632-8.593-2.757-18.377-3.763-29.03
			c-0.248-2.662-0.502-5.379-0.762-8.149c-0.268-2.752-0.485-5.627-0.833-8.397c-0.651-5.597-1.921-11.298-3.945-16.878
			c-0.229-0.707-0.53-1.387-0.809-2.079c-0.292-0.686-0.543-1.393-0.869-2.067c-0.64-1.355-1.259-2.731-2.008-4.049
			c-0.685-1.353-1.519-2.628-2.31-3.937c-0.413-0.643-0.866-1.261-1.299-1.896l-0.656-0.949l-0.713-0.91
			c-0.48-0.604-0.941-1.225-1.439-1.819c-0.513-0.581-1.026-1.164-1.542-1.748c-0.495-0.602-1.071-1.133-1.612-1.697
			c-0.554-0.551-1.079-1.136-1.679-1.646c-0.583-0.527-1.168-1.055-1.754-1.584c-0.6-0.514-1.231-0.994-1.847-1.495l-0.93-0.745
			l-0.976-0.691c-0.654-0.457-1.298-0.931-1.962-1.378c-5.378-3.491-11.359-6.288-17.747-8.173
			c-0.797-0.236-1.597-0.473-2.396-0.709c-0.813-0.199-1.626-0.398-2.44-0.598c-1.62-0.431-3.285-0.714-4.941-1.042
			c-0.825-0.18-1.664-0.301-2.503-0.427c-0.839-0.128-1.678-0.256-2.52-0.385c-1.688-0.213-3.39-0.383-5.09-0.566
			c-6.821-0.585-13.81-0.58-20.711-0.15c-1.752,0.136-3.507,0.272-5.263,0.408l-2.547,0.289l-2.529,0.386
			c-3.358,0.579-6.654,1.433-9.825,2.588c-6.346,2.298-12.143,5.924-16.909,10.649c-4.759,4.736-8.536,10.446-11.399,16.574
			c-1.444,3.061-2.673,6.223-3.756,9.428c-1.087,3.204-2.01,6.46-2.805,9.734c-1.587,6.552-2.67,13.173-3.467,19.73
			c-1.544,13.128-2.079,25.985-2.384,38.195c-0.304,12.222-0.311,23.792-0.947,34.544c-0.616,10.729-1.818,20.522-3.341,29.114
			c-1.501,8.597-3.384,15.98-5.232,21.958c-1.834,5.985-3.71,10.54-5.093,13.586C34.537,257.768,33.611,259.295,33.611,259.295z"/>
	</g>
	<path d="M49.748,98.865c38.109,1.688,50.502,5.941,51.627,6.528c1.125,0.585,1.837,0.521,2.118,1.505s0.355,2.452,0.355,2.452
		l0.917,0.066c0.07-1.125,1.783-4.056,1.783-4.056c41.812,2.062,54.75,7.124,54.75,7.124l31.313,2.437l-8.532,12.843l-19.969-0.985
		c0,0-3.375,24.047-30.656,23.625s-28.969-32.484-28.969-32.484h-1.125c0,0-10.433,23.172-33.188,20.672
		c-12.797-1.406-25.405-13.631-22.078-31.641C48.703,103.66,49.748,98.865,49.748,98.865z"/>
	<defs>
		<filter id="Adobe_OpacityMaskFilter" filterUnits="userSpaceOnUse" x="57.085" y="121.946" width="57.244" height="28.854">
			<feFlood  style="flood-color:white;flood-opacity:1" result="back"/>
			<feBlend  in="SourceGraphic" in2="back" mode="normal"/>
		</filter>
	</defs>
	<mask maskUnits="userSpaceOnUse" x="57.085" y="121.946" width="57.244" height="28.854" id="SVGID_1_">
		<g filter="url(#Adobe_OpacityMaskFilter)">
			<path d="M301.731,139.699c0,0-6,42.75-54.5,42s-51.5-57.75-51.5-57.75"/>
		</g>
	</mask>
	<path mask="url(#SVGID_1_)" fill="#FEB324" d="M57.085,147.678c0,0,17.56-14.889,38.119-24.41
		c7.826-3.624,18.486,0.724,19.059,6.709c0.573,5.985-2.414,18.231-15.375,20.295C85.927,152.336,57.085,147.678,57.085,147.678z"/>
	<g>
		<g>
			<path fill="#D40026" d="M78.026,244.758c-4.162,0-7.669-1.743-10.519-5.231c-2.85-3.487-4.275-7.762-4.275-12.824
				c0-6.188,1.715-11.4,5.147-15.639c3.431-4.237,7.64-6.355,12.628-6.355c1.949,0,3.759,0.197,5.428,0.59
				c1.668,0.395,2.859,0.798,3.572,1.21l1.013,0.618l-3.825,7.819c-0.863-0.749-2.081-1.452-3.656-2.109
				c-1.575-0.655-3-0.984-4.275-0.984c-2.587,0-4.66,1.069-6.215,3.206c-1.557,2.138-2.335,5.186-2.335,9.141
				c0,3.957,0.806,7.2,2.419,9.731c1.612,2.531,3.806,3.797,6.581,3.797c1.8,0,3.432-0.563,4.894-1.688s2.494-2.625,3.094-4.5
				l4.668,2.7c-1.237,3.301-3.131,5.878-5.681,7.734C84.138,243.829,81.251,244.758,78.026,244.758z"/>
			<path fill="#D40026" d="M97.995,220.177c2.587-3.338,5.615-5.006,9.084-5.006c3.468,0,6.168,1.125,8.1,3.375
				c1.931,2.25,2.897,5.23,2.897,8.943c0,4.949-1.248,9.066-3.741,12.347c-2.495,3.281-5.635,4.922-9.422,4.922
				c-3.113,0-5.691-1.171-7.734-3.516c-2.044-2.344-3.066-5.297-3.066-8.859C94.113,227.583,95.407,223.515,97.995,220.177z
				 M111.776,230.414c0-5.438-1.856-8.156-5.569-8.156c-3.863,0-5.793,2.551-5.793,7.649c0,2.663,0.543,4.745,1.631,6.244
				c1.087,1.5,2.521,2.25,4.303,2.25c1.781,0,3.131-0.684,4.05-2.053C111.316,234.979,111.776,233.001,111.776,230.414z"/>
			<path fill="#D40026" d="M125.107,216.914v-6.132l7.594-1.462l-0.731,7.594h6.807l-0.619,4.612h-6.412l-0.281,11.756
				c0,1.764,0.168,2.935,0.506,3.516c0.338,0.583,0.956,0.873,1.856,0.873c0.899,0,2.1-0.206,3.6-0.619l0.338,3.994
				c-2.476,2.062-4.65,3.094-6.525,3.094c-1.875,0-3.412-0.685-4.612-2.054c-1.201-1.369-1.8-3.158-1.8-5.372l0.337-6.3
				l-0.056-8.888h-3.881l0.619-4.612H125.107z"/>
			<path fill="#D40026" d="M164.762,244.758c-4.162,0-7.669-1.743-10.519-5.231c-2.851-3.487-4.275-7.762-4.275-12.824
				c0-6.188,1.716-11.4,5.147-15.639c3.431-4.237,7.64-6.355,12.628-6.355c1.949,0,3.759,0.197,5.428,0.59
				c1.669,0.395,2.859,0.798,3.572,1.21l1.013,0.618l-3.825,7.819c-0.863-0.749-2.081-1.452-3.656-2.109
				c-1.575-0.655-3.001-0.984-4.275-0.984c-2.587,0-4.659,1.069-6.216,3.206c-1.557,2.138-2.334,5.186-2.334,9.141
				c0,3.957,0.806,7.2,2.419,9.731c1.612,2.531,3.806,3.797,6.581,3.797c1.8,0,3.432-0.563,4.894-1.688
				c1.463-1.125,2.493-2.625,3.094-4.5l4.669,2.7c-1.237,3.301-3.132,5.878-5.682,7.734
				C170.875,243.829,167.987,244.758,164.762,244.758z"/>
			<path fill="#D40026" d="M184.731,220.177c2.587-3.338,5.615-5.006,9.084-5.006s6.168,1.125,8.101,3.375
				c1.931,2.25,2.896,5.23,2.896,8.943c0,4.949-1.247,9.066-3.74,12.347c-2.495,3.281-5.636,4.922-9.422,4.922
				c-3.113,0-5.691-1.171-7.734-3.516c-2.045-2.344-3.066-5.297-3.066-8.859C180.849,227.583,182.143,223.515,184.731,220.177z
				 M198.512,230.414c0-5.438-1.856-8.156-5.569-8.156c-3.862,0-5.793,2.551-5.793,7.649c0,2.663,0.543,4.745,1.631,6.244
				c1.087,1.5,2.521,2.25,4.303,2.25s3.131-0.684,4.051-2.053C198.052,234.979,198.512,233.001,198.512,230.414z"/>
			<path fill="#D40026" d="M211.843,216.914v-6.132l7.594-1.462l-0.731,7.594h6.807l-0.619,4.612h-6.412l-0.281,11.756
				c0,1.764,0.169,2.935,0.506,3.516c0.338,0.583,0.956,0.873,1.856,0.873s2.1-0.206,3.6-0.619l0.338,3.994
				c-2.475,2.062-4.65,3.094-6.525,3.094s-3.412-0.685-4.612-2.054s-1.8-3.158-1.8-5.372l0.338-6.3l-0.057-8.888h-3.881l0.618-4.612
				H211.843z"/>
		</g>
	</g>
	<g>
		<g>
			<path fill="#D40026" d="M94.828,280.83c-2.34,2.94-4.365,4.41-6.075,4.41c-2.13,0-3.878-0.87-5.243-2.61
				c-1.365-1.739-2.047-3.975-2.047-6.705c0-3.75,1.042-6.915,3.127-9.495c2.085-2.58,4.643-3.87,7.673-3.87l2.52,0.36v-0.855
				l-0.54-10.529l6.165-1.125l-0.585,23.13v3.96c0,1.8,0.451,3.87,1.351,6.21l-4.86,2.024
				C95.443,283.935,94.948,282.3,94.828,280.83z M86.503,273.585c0,1.92,0.352,3.42,1.057,4.5c0.705,1.08,1.725,1.62,3.06,1.62
				c1.334,0,2.723-0.54,4.163-1.62v-9.72c-1.8-0.36-3.135-0.541-4.005-0.541c-1.35,0-2.4,0.48-3.149,1.44
				C86.878,270.226,86.503,271.665,86.503,273.585z"/>
			<path fill="#D40026" d="M110.803,260.175c0,2.55-1.86,5.25-5.58,8.101l-1.845-1.351c1.77-2.069,2.655-3.854,2.655-5.354
				c0-0.93-0.39-2.115-1.169-3.556l4.41-1.754C110.293,257.55,110.803,258.855,110.803,260.175z"/>
			<path fill="#D40026" d="M115.978,266.07c2.07-2.67,4.492-4.006,7.267-4.006s4.935,0.901,6.48,2.7
				c1.544,1.8,2.318,4.185,2.318,7.155c0,3.96-0.998,7.253-2.993,9.877c-1.996,2.626-4.507,3.938-7.538,3.938
				c-2.49,0-4.553-0.937-6.188-2.813c-1.635-1.874-2.452-4.236-2.452-7.087C112.873,271.995,113.908,268.741,115.978,266.07z
				 M127.003,274.261c0-4.351-1.485-6.526-4.455-6.526c-3.091,0-4.635,2.041-4.635,6.121c0,2.13,0.435,3.795,1.305,4.994
				c0.87,1.2,2.018,1.801,3.442,1.801c1.425,0,2.505-0.548,3.241-1.643C126.635,277.912,127.003,276.33,127.003,274.261z"/>
			<path fill="#D40026" d="M147.928,262.515c1.919,0,3.532,0.841,4.837,2.521s1.958,3.945,1.958,6.795
				c0,3.99-1.028,7.223-3.083,9.698c-2.055,2.474-4.612,3.712-7.673,3.712c-0.63,0-1.335-0.045-2.114-0.135l0.225,8.594
				l-6.165,1.125l0.585-20.52h0.045c-0.12-4.02-0.45-7.619-0.989-10.8l5.444-1.17c0.181,1.591,0.33,3.165,0.45,4.725
				c0.06-0.149,0.367-0.563,0.923-1.236c0.555-0.676,1.372-1.396,2.452-2.161C145.903,262.897,146.938,262.515,147.928,262.515z
				 M146.172,268.365c-1.59,0-3.135,0.435-4.635,1.305v3.87l0.18,6.435c1.62,0.271,2.851,0.405,3.69,0.405
				c2.88,0,4.32-2.003,4.32-6.008S148.542,268.365,146.172,268.365z"/>
			<path fill="#D40026" d="M158.615,283.553c-1.125-1.125-1.688-2.64-1.688-4.545s0.869-3.556,2.609-4.95
				c1.74-1.396,3.854-2.092,6.346-2.092h3.06v-0.767c0-1.469-0.3-2.475-0.899-3.015c-0.601-0.54-1.726-0.81-3.375-0.81
				c-0.69,0-1.508,0.144-2.452,0.428c-0.945,0.285-2.003,0.728-3.173,1.327l-1.305-3.556c1.289-0.899,2.857-1.709,4.702-2.43
				c1.845-0.72,3.367-1.08,4.567-1.08c4.71,0,7.065,2.281,7.065,6.84v8.82c0,1.681,0.523,3.555,1.574,5.625l-4.77,2.025
				c-0.75-1.44-1.305-2.729-1.665-3.87c-1.65,2.49-3.735,3.735-6.255,3.735C161.187,285.24,159.74,284.678,158.615,283.553z
				 M164.847,280.65c1.2,0,2.564-0.615,4.095-1.846v-3.015c-1.59-0.36-2.88-0.54-3.869-0.54c-1.891,0-2.835,0.84-2.835,2.52
				c0,0.871,0.239,1.568,0.72,2.093C163.437,280.388,164.067,280.65,164.847,280.65z"/>
			<path fill="#D40026" d="M185.727,250.41l-0.585,23.13l0.495,10.575l-6.075,1.125l0.54-10.936l-0.54-22.77L185.727,250.41z"/>
			<path fill="#D40026" d="M199.046,280.65c0.87,0,1.785-0.226,2.745-0.676c0.96-0.449,1.71-0.9,2.25-1.35l0.811-0.676l2.069,2.521
				c-0.3,0.511-0.765,1.096-1.396,1.755c-0.629,0.66-1.267,1.223-1.912,1.688c-0.646,0.466-1.5,0.886-2.564,1.26
				c-1.065,0.375-2.168,0.563-3.308,0.563c-2.43,0-4.41-0.922-5.94-2.768c-1.529-1.845-2.295-4.222-2.295-7.132
				c0-3.66,1.064-6.87,3.195-9.63c2.13-2.76,4.619-4.141,7.47-4.141c2.189,0,3.893,0.615,5.107,1.846
				c1.216,1.23,1.823,2.955,1.823,5.175c0,1.32-0.226,2.82-0.676,4.5l-0.9,0.944l-11.25,1.035
				C194.786,278.955,196.376,280.65,199.046,280.65z M199.046,266.699c-1.32,0-2.43,0.533-3.33,1.598
				c-0.9,1.065-1.425,2.424-1.574,4.073l7.649-0.945c0.09-0.689,0.135-1.26,0.135-1.709
				C201.926,267.705,200.966,266.699,199.046,266.699z"/>
		</g>
	</g>
</g>
</svg>
