<?xml version="1.0" encoding="utf-8"?>
<!-- Generator: Adobe Illustrator 16.0.0, SVG Export Plug-In . SVG Version: 6.00 Build 0)  -->
<!DOCTYPE svg PUBLIC "-//W3C//DTD SVG 1.1//EN" "http://www.w3.org/Graphics/SVG/1.1/DTD/svg11.dtd">
<svg version="1.1" id="Calque_1" xmlns="http://www.w3.org/2000/svg" xmlns:xlink="http://www.w3.org/1999/xlink" x="0px" y="0px"
	 width="50px" height="30px" viewBox="0 0 50 30" enable-background="new 0 0 50 30" xml:space="preserve">
<g>
	<path fill-rule="evenodd" clip-rule="evenodd" fill="#FFFFFF" d="M34.842,13.596l-4.219,2.811c0-0.855-0.387-1.61-0.988-2.125
		c1.432-0.862,2.396-2.413,2.396-4.202c0-2.719-2.204-4.923-4.924-4.923s-4.918,2.204-4.918,4.923c0,1.376,0.569,2.619,1.482,3.516
		h-2.579c0.674-0.749,1.097-1.727,1.097-2.815c0-2.327-1.89-4.215-4.219-4.215c-2.333,0-4.221,1.888-4.221,4.215
		c0,1.274,0.572,2.4,1.463,3.173c-0.868,0.48-1.463,1.394-1.463,2.454v5.623c0,1.555,1.261,2.812,2.811,2.812h11.251
		c1.551,0,2.811-1.257,2.811-2.812l4.219,2.812c0.776,0,1.408-0.628,1.408-1.404V15C36.25,14.224,35.618,13.596,34.842,13.596
		L34.842,13.596z M17.971,13.596c-1.558,0-2.813-1.261-2.813-2.815c0-1.552,1.255-2.813,2.813-2.813
		c1.549,0,2.811,1.261,2.811,2.813C20.781,12.335,19.52,13.596,17.971,13.596L17.971,13.596z M27.107,13.602
		c-1.947,0-3.522-1.578-3.522-3.521c0-1.946,1.58-3.525,3.522-3.525c1.947,0,3.523,1.579,3.523,3.525
		C30.631,12.024,29.055,13.602,27.107,13.602L27.107,13.602z M27.107,13.602"/>
</g>
</svg>
