<?xml version="1.0" encoding="utf-8"?>
<!-- Generator: Adobe Illustrator 16.0.0, SVG Export Plug-In . SVG Version: 6.00 Build 0)  -->
<!DOCTYPE svg PUBLIC "-//W3C//DTD SVG 1.1//EN" "http://www.w3.org/Graphics/SVG/1.1/DTD/svg11.dtd">
<svg version="1.1" id="Calque_1" xmlns="http://www.w3.org/2000/svg" xmlns:xlink="http://www.w3.org/1999/xlink" x="0px" y="0px"
	 width="34px" height="34px" viewBox="0 0 34 34" enable-background="new 0 0 34 34" xml:space="preserve">
<g>
	<path fill="#3D8AF9" d="M22.49,26.294c0.225,0.223,0.881-0.072,1.105-0.295l0.367-0.369c0.225-0.223,0.52-0.881,0.295-1.104
		l-5.537-5.255l-1.445,1.525L22.49,26.294z M22.49,26.294"/>
	<path fill="#3D8AF9" d="M13.309,14.133c0.719-1.253,0.34-2.772-0.797-3.906c-1.34-1.341-4.234-2.652-5.576-1.312
		c-1.34,1.34-0.029,4.235,1.313,5.576c1.111,1.113,2.596,1.502,3.836,0.836l2.623,2.766l1.387-1.317L13.309,14.133z M13.309,14.133"
		/>
	<path fill="#3D8AF9" d="M20.131,14.095L9.139,24.526c-0.225,0.223,0.07,0.881,0.295,1.104l0.367,0.369
		c0.166,0.168,0.578,0.373,0.867,0.373c0.098,0,0.184-0.021,0.236-0.078l10.472-11.033c0.291,0.145,0.6,0.225,0.908,0.254
		c0.93,0.083,1.898-0.323,2.676-1.103c2.641-2.64,3.115-3.221,2.305-4.237l-3.117,2.986c-0.068,0.07-0.166,0.113-0.266,0.113
		c-0.09,0-0.172-0.034-0.23-0.096l-0.084-0.083c-0.061-0.062-0.096-0.142-0.096-0.229c0.002-0.101,0.043-0.198,0.115-0.271
		l2.83-3.318c-0.066-0.066-0.131-0.13-0.203-0.201c-0.121-0.122-0.234-0.234-0.342-0.344l-3.33,2.842
		c-0.061,0.063-0.158,0.104-0.256,0.104c-0.09,0-0.172-0.033-0.232-0.094l-0.084-0.083c-0.061-0.062-0.092-0.144-0.092-0.232
		c0-0.098,0.041-0.195,0.115-0.269L24.965,7.9c-0.959-0.697-1.541-0.116-4.088,2.43c-0.846,0.848-1.254,1.918-1.066,2.919
		C19.865,13.541,19.971,13.822,20.131,14.095L20.131,14.095z M20.131,14.095"/>
</g>
</svg>
