<?xml version="1.0" encoding="utf-8"?>
<!-- Generator: Adobe Illustrator 16.0.0, SVG Export Plug-In . SVG Version: 6.00 Build 0)  -->
<!DOCTYPE svg PUBLIC "-//W3C//DTD SVG 1.1//EN" "http://www.w3.org/Graphics/SVG/1.1/DTD/svg11.dtd">
<svg version="1.1" xmlns="http://www.w3.org/2000/svg" xmlns:xlink="http://www.w3.org/1999/xlink" x="0px" y="0px" width="34px"
	 height="34px" viewBox="0 0 34 34" enable-background="new 0 0 34 34" xml:space="preserve">
<g id="Calque_2" display="none">
	<rect x="-1.467" y="-1.396" display="inline" fill="#FF29FF" width="39" height="41"/>
</g>
<g id="Calque_1">
	<g>
		<g>
			<path fill="#FFFFFF" d="M17.251,7.311c0,1.391-1.127,2.52-2.519,2.52c-1.393,0-2.519-1.129-2.519-2.52
				c0-1.391,1.126-2.518,2.519-2.518C16.124,4.792,17.251,5.92,17.251,7.311L17.251,7.311z M17.251,7.311"/>
			<path fill="#FFFFFF" d="M19.699,18.132c-0.105-0.975-0.356-1.902-0.646-2.822c0,0,0.002,0.002,0.004,0.002
				c0.97,0.803,2.006,1.445,3.236,1.761c1.401,0.362,1.994-1.797,0.597-2.158c-1.989-0.513-3.281-2.244-5.026-3.234
				c-1.115-1.755-4.378-0.639-3.781,1.735c0.091,0.364,0.206,0.729,0.329,1.091c-0.442,0.576-1.048,0.954-1.87,0.908
				c-0.531-0.03-0.863,0.254-1.004,0.63h-0.922v0.56h0.857c0.031,0.296,0.161,0.585,0.392,0.787l-1.527,11.191l0.556,0.077
				l1.505-11.028c0.046,0.009,0.091,0.02,0.143,0.021c0.992,0.059,1.91-0.262,2.669-0.819c0.182,0.624,0.316,1.255,0.337,1.902
				c0.006,0.162,0.026,0.313,0.061,0.456c-0.766,0.528-1.487,1.126-2.146,1.762c-2.045,1.986,0.123,4.229,1.158,6.153
				c0.856,1.59,3.273,0.178,2.416-1.412c-0.367-0.682-0.793-1.322-1.206-1.977c-0.188-0.297-0.227-0.907-0.523-0.644
				c0.188-0.211,0.405-0.403,0.613-0.592c0.568-0.512,1.244-1.041,1.949-1.466c0.976,2.458,1.907,4.932,2.837,7.405
				c0.626,1.673,3.333,0.949,2.697-0.745C22.205,24.486,20.995,21.29,19.699,18.132L19.699,18.132z M19.699,18.132"/>
		</g>
	</g>
</g>
</svg>
