<?xml version="1.0" encoding="utf-8"?>
<!-- Generator: Adobe Illustrator 16.0.0, SVG Export Plug-In . SVG Version: 6.00 Build 0)  -->
<!DOCTYPE svg PUBLIC "-//W3C//DTD SVG 1.1//EN" "http://www.w3.org/Graphics/SVG/1.1/DTD/svg11.dtd">
<svg version="1.1" id="Calque_1" xmlns="http://www.w3.org/2000/svg" xmlns:xlink="http://www.w3.org/1999/xlink" x="0px" y="0px"
	 width="48px" height="48px" viewBox="0 0 48 48" enable-background="new 0 0 48 48" xml:space="preserve">
<path fill="#3D8AF9" d="M47,41.378c0,2.966-2.531,5.997-5.497,5.997H6.624C3.657,47.375,1,44.218,1,41.251V6.372
	c0-2.966,2.531-5.308,5.498-5.308l35.005-0.063L47,6.372V41.378z"/>
<path fill="#FFFFFF" d="M8,1.375v16h32v-16H8z M37,14.375h-6v-10h6V14.375z"/>
<rect x="8" y="25.375" fill="#FFFFFF" width="32" height="22"/>
<g>
	<rect x="12" y="29.375" fill="#3D8AF9" width="24" height="2"/>
	<rect x="12" y="33.375" fill="#3D8AF9" width="24" height="2"/>
	<rect x="12" y="37.375" fill="#3D8AF9" width="24" height="2"/>
	<rect x="12" y="41.375" fill="#3D8AF9" width="24" height="2"/>
</g>
</svg>
