<?xml version="1.0" encoding="utf-8"?>
<!-- Generator: Adobe Illustrator 16.0.0, SVG Export Plug-In . SVG Version: 6.00 Build 0)  -->
<!DOCTYPE svg PUBLIC "-//W3C//DTD SVG 1.1//EN" "http://www.w3.org/Graphics/SVG/1.1/DTD/svg11.dtd">
<svg version="1.1" id="Calque_1" xmlns="http://www.w3.org/2000/svg" xmlns:xlink="http://www.w3.org/1999/xlink" x="0px" y="0px"
	 width="50px" height="30px" viewBox="0 0 50 30" enable-background="new 0 0 50 30" xml:space="preserve">
<g>
	<g>
		<path fill="#FFFFFF" d="M26.639,7.211c0,1.273-1.032,2.307-2.305,2.307c-1.275,0-2.306-1.033-2.306-2.307s1.031-2.305,2.306-2.305
			C25.607,4.907,26.639,5.938,26.639,7.211L26.639,7.211z M26.639,7.211"/>
		<path fill="#FFFFFF" d="M28.879,17.117c-0.096-0.893-0.326-1.742-0.59-2.583c0,0,0,0.002,0.004,0.002
			c0.887,0.735,1.836,1.323,2.961,1.613c1.283,0.332,1.826-1.646,0.547-1.976c-1.82-0.47-3.004-2.055-4.602-2.961
			c-1.021-1.606-4.008-0.584-3.461,1.589c0.083,0.333,0.189,0.667,0.301,0.999c-0.405,0.526-0.96,0.873-1.712,0.83
			c-0.486-0.027-0.79,0.232-0.919,0.577h-0.844v0.512h0.785c0.028,0.271,0.147,0.536,0.358,0.721L20.31,26.684l0.509,0.07
			l1.378-10.096c0.042,0.01,0.083,0.02,0.13,0.02c0.909,0.055,1.749-0.238,2.444-0.749c0.167,0.571,0.289,1.149,0.309,1.741
			c0.006,0.148,0.024,0.287,0.056,0.418c-0.701,0.483-1.361,1.03-1.964,1.612c-1.873,1.818,0.112,3.871,1.06,5.633
			c0.784,1.456,2.996,0.162,2.211-1.292c-0.335-0.625-0.726-1.211-1.103-1.81c-0.171-0.272-0.208-0.83-0.479-0.59
			c0.173-0.193,0.371-0.368,0.562-0.541c0.521-0.469,1.139-0.953,1.784-1.342c0.893,2.25,1.746,4.515,2.598,6.778
			c0.572,1.532,3.051,0.869,2.469-0.682C31.174,22.934,30.066,20.008,28.879,17.117L28.879,17.117z M28.879,17.117"/>
	</g>
</g>
</svg>
