<?xml version="1.0" encoding="utf-8"?>
<!-- Generator: Adobe Illustrator 16.0.0, SVG Export Plug-In . SVG Version: 6.00 Build 0)  -->
<!DOCTYPE svg PUBLIC "-//W3C//DTD SVG 1.1//EN" "http://www.w3.org/Graphics/SVG/1.1/DTD/svg11.dtd">
<svg version="1.1" id="Calque_1" xmlns="http://www.w3.org/2000/svg" xmlns:xlink="http://www.w3.org/1999/xlink" x="0px" y="0px"
	 width="34px" height="34px" viewBox="0 0 34 34" enable-background="new 0 0 34 34" xml:space="preserve">
<g>
	<path fill="#3D8AF9" d="M17.208,8.553c0,1.203-0.977,2.179-2.178,2.179c-1.205,0-2.178-0.976-2.178-2.179
		c0-1.202,0.973-2.178,2.178-2.178C16.231,6.375,17.208,7.351,17.208,8.553L17.208,8.553z"/>
	<path fill="#3D8AF9" d="M19.322,17.908c-0.09-0.842-0.309-1.645-0.559-2.439c0,0,0.002,0.002,0.004,0.002
		c0.838,0.693,1.732,1.249,2.797,1.522c1.213,0.313,1.725-1.554,0.518-1.865c-1.721-0.444-2.838-1.94-4.346-2.796
		c-0.964-1.519-3.786-0.553-3.271,1.498c0.078,0.316,0.178,0.631,0.283,0.943c-0.383,0.498-0.906,0.825-1.615,0.786
		c-0.461-0.026-0.746,0.219-0.869,0.544h-0.797v0.484h0.742c0.025,0.256,0.139,0.506,0.338,0.68l-1.32,9.676l0.48,0.064l1.303-9.535
		c0.039,0.009,0.078,0.018,0.123,0.02c0.857,0.051,1.65-0.227,2.307-0.709c0.158,0.54,0.273,1.087,0.293,1.646
		c0.006,0.143,0.021,0.271,0.051,0.396c-0.662,0.454-1.285,0.972-1.854,1.521c-1.77,1.717,0.105,3.655,1,5.319
		c0.74,1.375,2.831,0.153,2.088-1.22c-0.316-0.592-0.686-1.146-1.041-1.709c-0.162-0.258-0.197-0.784-0.453-0.56
		c0.164-0.182,0.35-0.347,0.531-0.511c0.49-0.441,1.074-0.898,1.684-1.268c0.843,2.125,1.648,4.265,2.451,6.4
		c0.541,1.446,2.885,0.82,2.332-0.645C21.488,23.402,20.443,20.639,19.322,17.908L19.322,17.908z"/>
</g>
</svg>
