<?xml version="1.0" encoding="utf-8"?>
<!-- Generator: Adobe Illustrator 16.0.0, SVG Export Plug-In . SVG Version: 6.00 Build 0)  -->
<!DOCTYPE svg PUBLIC "-//W3C//DTD SVG 1.1//EN" "http://www.w3.org/Graphics/SVG/1.1/DTD/svg11.dtd">
<svg version="1.1" id="Calque_1" xmlns="http://www.w3.org/2000/svg" xmlns:xlink="http://www.w3.org/1999/xlink" x="0px" y="0px"
	 width="34px" height="34px" viewBox="0 0 34 34" enable-background="new 0 0 34 34" xml:space="preserve">
<path fill-rule="evenodd" clip-rule="evenodd" fill="#3D8AF9" d="M26.295,15.674l-3.984,2.656c0-0.809-0.365-1.521-0.934-2.008
	c1.352-0.814,2.264-2.279,2.264-3.969c0-2.566-2.082-4.648-4.65-4.648c-2.568,0-4.644,2.082-4.644,4.648
	c0,1.301,0.537,2.475,1.398,3.32h-2.436c0.637-0.707,1.037-1.631,1.037-2.658c0-2.199-1.785-3.98-3.984-3.98
	c-2.203,0-3.986,1.781-3.986,3.98c0,1.203,0.541,2.268,1.381,2.996c-0.818,0.455-1.381,1.316-1.381,2.318v5.311
	c0,1.469,1.191,2.654,2.654,2.654h10.626c1.465,0,2.654-1.186,2.654-2.654l3.984,2.654c0.732,0,1.33-0.592,1.33-1.326V17
	C27.625,16.268,27.027,15.674,26.295,15.674L26.295,15.674z M10.362,15.674c-1.473,0-2.656-1.189-2.656-2.658
	c0-1.465,1.184-2.656,2.656-2.656c1.463,0,2.654,1.191,2.654,2.656C13.016,14.484,11.825,15.674,10.362,15.674L10.362,15.674z
	 M18.99,15.68c-1.839,0-3.328-1.49-3.328-3.326c0-1.838,1.492-3.328,3.328-3.328c1.84,0,3.326,1.49,3.326,3.328
	C22.316,14.189,20.83,15.68,18.99,15.68L18.99,15.68z M18.99,15.68"/>
</svg>
