<?xml version="1.0" encoding="utf-8"?>
<!-- Generator: Adobe Illustrator 16.0.0, SVG Export Plug-In . SVG Version: 6.00 Build 0)  -->
<!DOCTYPE svg PUBLIC "-//W3C//DTD SVG 1.1//EN" "http://www.w3.org/Graphics/SVG/1.1/DTD/svg11.dtd">
<svg version="1.1" xmlns="http://www.w3.org/2000/svg" xmlns:xlink="http://www.w3.org/1999/xlink" x="0px" y="0px" width="34px"
	 height="27.688px" viewBox="0 0 34 27.688" enable-background="new 0 0 34 27.688" xml:space="preserve">
<g id="Calque_2_1_" display="none">
	
		<rect x="-6.333" y="-3.823" display="inline" fill="#005FD0" stroke="#000000" stroke-miterlimit="10" width="50.667" height="41.333"/>
</g>
<g id="Calque_3">
	<g>
		<g>
			<path fill="#FFFFFF" d="M23.17,24.593c0.254,0.254,0.998-0.081,1.254-0.334l0.416-0.418c0.252-0.255,0.59-1,0.334-1.254
				l-6.281-5.962l-1.642,1.73L23.17,24.593z M23.17,24.593"/>
			<path fill="#FFFFFF" d="M12.752,10.797c0.817-1.421,0.385-3.146-0.903-4.432c-1.521-1.521-4.806-3.009-6.327-1.488
				C4.002,6.398,5.489,9.682,7.01,11.204c1.261,1.263,2.945,1.704,4.353,0.948l2.976,3.137l1.574-1.494L12.752,10.797z
				 M12.752,10.797"/>
			<path fill="#FFFFFF" d="M20.492,10.753L8.02,22.587c-0.254,0.254,0.079,0.999,0.335,1.254l0.417,0.418
				c0.188,0.19,0.656,0.424,0.983,0.424c0.111,0,0.208-0.024,0.27-0.09l11.881-12.517c0.33,0.165,0.678,0.256,1.029,0.29
				c1.055,0.093,2.152-0.368,3.035-1.252c2.996-2.994,3.535-3.655,2.615-4.808l-3.537,3.389c-0.076,0.08-0.189,0.129-0.301,0.129
				c-0.102,0-0.195-0.039-0.262-0.109L24.393,9.62c-0.068-0.069-0.109-0.161-0.109-0.26c0.002-0.114,0.049-0.224,0.133-0.308
				l3.209-3.765c-0.076-0.076-0.148-0.147-0.23-0.229c-0.137-0.139-0.266-0.266-0.387-0.39l-3.779,3.224
				c-0.068,0.072-0.18,0.118-0.291,0.118c-0.102,0-0.193-0.038-0.264-0.107L22.58,7.81c-0.068-0.069-0.105-0.162-0.105-0.263
				c0-0.111,0.049-0.221,0.131-0.304l3.371-3.518c-1.088-0.792-1.748-0.132-4.639,2.755c-0.959,0.962-1.422,2.177-1.209,3.312
				C20.189,10.124,20.311,10.444,20.492,10.753L20.492,10.753z M20.492,10.753"/>
		</g>
	</g>
</g>
<g id="Calque_1" display="none">
	<g id="Calque_2">
		<rect x="-1.467" y="0.125" display="inline" fill="#FF29FF" width="39" height="41"/>
	</g>
	<g id="Calque_1_1_" display="inline">
		<g>
			<g>
				<path fill="#FFFFFF" d="M17.314,4.039c0,1.391-1.127,2.52-2.519,2.52c-1.393,0-2.519-1.129-2.519-2.52
					c0-1.392,1.126-2.519,2.519-2.519C16.187,1.521,17.314,2.648,17.314,4.039L17.314,4.039z"/>
				<path fill="#FFFFFF" d="M19.762,14.86c-0.104-0.975-0.355-1.901-0.646-2.821c0,0,0.002,0.002,0.004,0.002
					c0.97,0.803,2.006,1.444,3.235,1.761c1.401,0.362,1.994-1.797,0.598-2.158c-1.989-0.513-3.281-2.244-5.026-3.233
					c-1.115-1.756-4.378-0.64-3.781,1.734c0.091,0.364,0.206,0.729,0.329,1.091c-0.442,0.576-1.048,0.954-1.87,0.908
					c-0.531-0.03-0.863,0.254-1.004,0.63h-0.922v0.561h0.857c0.031,0.296,0.161,0.585,0.392,0.787L10.4,25.311l0.556,0.077
					l1.505-11.028c0.046,0.01,0.091,0.021,0.143,0.021c0.992,0.059,1.91-0.262,2.669-0.819c0.182,0.624,0.316,1.255,0.337,1.902
					c0.006,0.162,0.026,0.313,0.061,0.456c-0.766,0.527-1.487,1.126-2.146,1.762c-2.045,1.986,0.123,4.229,1.158,6.153
					c0.856,1.59,3.273,0.178,2.416-1.412c-0.367-0.682-0.793-1.322-1.206-1.978c-0.188-0.297-0.227-0.906-0.523-0.644
					c0.188-0.211,0.405-0.403,0.613-0.592c0.568-0.513,1.244-1.041,1.949-1.466c0.977,2.458,1.907,4.932,2.838,7.404
					c0.625,1.673,3.332,0.949,2.696-0.745C22.268,21.214,21.059,18.019,19.762,14.86L19.762,14.86z"/>
			</g>
		</g>
	</g>
</g>
</svg>
