<?xml version="1.0" encoding="utf-8"?>
<!-- Generator: Adobe Illustrator 16.0.0, SVG Export Plug-In . SVG Version: 6.00 Build 0)  -->
<!DOCTYPE svg PUBLIC "-//W3C//DTD SVG 1.1//EN" "http://www.w3.org/Graphics/SVG/1.1/DTD/svg11.dtd">
<svg version="1.1" id="Calque_1" xmlns="http://www.w3.org/2000/svg" xmlns:xlink="http://www.w3.org/1999/xlink" x="0px" y="0px"
	 width="50px" height="30px" viewBox="0 0 50 30" enable-background="new 0 0 50 30" xml:space="preserve">
<g>
	<g>
		<path fill="#FFFFFF" d="M30.813,24.84c0.237,0.237,0.933-0.075,1.17-0.312l0.39-0.391c0.236-0.237,0.55-0.933,0.313-1.169
			l-5.863-5.564l-1.531,1.615L30.813,24.84z M30.813,24.84"/>
		<path fill="#FFFFFF" d="M21.091,11.964c0.763-1.326,0.36-2.936-0.842-4.136c-1.419-1.42-4.485-2.809-5.904-1.389
			c-1.419,1.419-0.032,4.484,1.388,5.904c1.177,1.179,2.748,1.59,4.062,0.886l2.777,2.926l1.469-1.392L21.091,11.964z
			 M21.091,11.964"/>
		<path fill="#FFFFFF" d="M28.314,11.924L16.676,22.969c-0.237,0.236,0.074,0.932,0.312,1.169l0.39,0.391
			c0.176,0.178,0.612,0.396,0.917,0.396c0.104,0,0.194-0.023,0.251-0.084l11.088-11.682c0.309,0.154,0.634,0.239,0.961,0.271
			c0.984,0.088,2.01-0.343,2.834-1.168c2.795-2.795,3.297-3.41,2.439-4.487l-3.3,3.162c-0.073,0.075-0.177,0.121-0.282,0.121
			c-0.095,0-0.181-0.036-0.244-0.102l-0.088-0.088c-0.064-0.065-0.102-0.15-0.102-0.243c0.003-0.106,0.046-0.21,0.123-0.287
			l2.995-3.514c-0.069-0.071-0.138-0.138-0.214-0.214c-0.129-0.129-0.248-0.247-0.361-0.363l-3.527,3.009
			c-0.064,0.067-0.168,0.11-0.271,0.11c-0.095,0-0.182-0.035-0.245-0.099l-0.089-0.088c-0.065-0.065-0.099-0.152-0.099-0.246
			c0-0.104,0.045-0.207,0.122-0.284l3.146-3.283c-1.015-0.739-1.631-0.123-4.328,2.572c-0.896,0.898-1.327,2.03-1.129,3.091
			C28.035,11.336,28.146,11.635,28.314,11.924L28.314,11.924z M28.314,11.924"/>
	</g>
</g>
</svg>
